<?xml version="1.0" standalone="no"?>
<!DOCTYPE svg PUBLIC "-//W3C//DTD SVG 20010904//EN"
 "http://www.w3.org/TR/2001/REC-SVG-20010904/DTD/svg10.dtd">
<svg version="1.0" xmlns="http://www.w3.org/2000/svg"
 width="192.000000pt" height="192.000000pt" viewBox="0 0 192.000000 192.000000"
 preserveAspectRatio="xMidYMid meet">
<metadata>
Created by potrace 1.10, written by Peter Selinger 2001-2011
</metadata>
<g transform="translate(0.000000,192.000000) scale(0.100000,-0.100000)"
fill="#000000" stroke="none">
<path d="M676 1635 c-11 -8 -18 -16 -15 -17 2 -1 175 -4 384 -7 368 -6 382 -7
437 -29 230 -93 315 -403 169 -616 -77 -112 -194 -165 -366 -166 l-90 -1 49
-20 c75 -30 126 -70 215 -168 125 -137 219 -173 304 -116 36 25 82 96 75 117
-2 6 -20 -8 -39 -29 -72 -79 -115 -91 -191 -52 -43 22 -227 206 -225 224 0 6
24 16 51 23 128 32 233 120 287 239 56 123 51 282 -13 407 -29 56 -115 144
-168 171 -103 52 -133 55 -502 55 -286 -1 -346 -3 -362 -15z"/>
<path d="M674 1567 c15 -19 29 -54 32 -79 l6 -45 -48 -8 c-87 -13 -287 -85
-376 -136 -115 -66 -180 -126 -217 -201 -103 -205 51 -394 262 -322 114 39
185 175 122 234 -31 29 -45 19 -82 -57 -44 -90 -116 -120 -167 -70 -30 28 -36
56 -25 108 25 111 181 234 379 299 104 34 150 38 150 14 0 -9 7 -30 15 -48 15
-31 14 -36 -24 -132 -21 -54 -60 -164 -86 -244 -87 -265 -153 -373 -266 -429
-77 -38 -122 -40 -144 -7 -15 23 -15 27 0 49 12 19 27 26 66 29 94 9 105 62
18 84 -131 32 -269 -74 -240 -184 12 -42 51 -85 94 -101 46 -18 148 -13 221
10 116 36 210 123 299 273 15 26 32 44 37 41 13 -8 13 -126 -1 -162 -6 -15
-20 -38 -31 -50 -26 -28 -17 -40 16 -25 50 22 61 56 64 193 l4 126 54 15 54
15 0 -139 c0 -153 10 -191 56 -208 43 -17 47 -11 16 28 -29 36 -29 40 -35 189
l-6 152 29 6 c18 4 40 0 59 -9 16 -9 47 -18 68 -22 119 -17 158 -45 262 -185
83 -113 163 -191 216 -213 51 -22 150 -20 201 3 88 40 163 154 144 218 -5 19
-9 23 -13 13 -3 -8 -13 -36 -22 -62 -21 -56 -72 -112 -122 -133 -19 -8 -62
-15 -95 -15 -101 0 -147 35 -292 227 -111 147 -169 183 -294 183 -58 1 -65 2
-49 14 12 9 65 15 175 18 182 6 240 22 316 89 91 80 131 183 124 319 -6 135
-63 238 -171 306 -66 43 -135 54 -333 54 l-181 0 -27 -26 c-17 -18 -26 -37
-26 -60 0 -40 -2 -41 -65 -45 -43 -3 -50 -1 -51 16 0 11 -1 33 -2 48 -2 33
-43 77 -72 77 -20 0 -20 -1 4 -33z m664 -32 c138 -41 225 -171 223 -335 -1
-123 -53 -226 -145 -285 -65 -41 -138 -57 -243 -53 l-83 3 70 74 c161 170 179
328 49 431 -27 21 -74 45 -108 55 -58 18 -60 20 -63 54 -3 31 -7 36 -31 39
-16 2 -43 -6 -63 -17 -19 -12 -37 -21 -40 -21 -11 0 -2 40 12 54 22 23 347 23
422 1z m-318 -42 c0 -4 -14 -21 -31 -39 l-30 -31 63 -12 c111 -22 203 -80 227
-144 48 -126 -80 -321 -271 -415 -81 -40 -211 -82 -253 -82 -16 0 -28 -15 -47
-58 -39 -85 -121 -205 -173 -255 -84 -81 -225 -130 -319 -113 -51 10 -106 63
-106 103 0 77 84 136 187 131 78 -4 80 -24 2 -23 -56 0 -63 -2 -91 -34 -24
-27 -29 -39 -24 -65 21 -111 178 -96 302 28 75 76 127 177 188 365 83 255 140
390 208 489 17 24 28 45 26 47 -7 7 -164 -16 -245 -36 -286 -70 -493 -233
-493 -387 0 -64 20 -106 60 -127 81 -42 182 17 214 125 21 72 46 45 27 -28
-15 -56 -47 -91 -105 -118 -88 -41 -164 -28 -223 39 -79 90 -42 243 85 342
152 120 454 225 648 225 34 0 66 5 69 11 9 14 86 69 97 69 4 0 8 -3 8 -7z
m-246 -203 c-14 -27 -27 -50 -30 -50 -2 0 -4 20 -4 44 0 34 4 46 18 49 39 10
41 6 16 -43z"/>
<path d="M910 1314 c-17 -42 -60 -156 -94 -253 -35 -97 -71 -193 -80 -215 -9
-21 -16 -42 -16 -46 0 -5 30 1 68 12 217 65 392 238 392 388 0 94 -50 149
-160 174 -36 9 -68 16 -72 16 -3 0 -20 -34 -38 -76z m156 7 c56 -25 74 -54 74
-116 -1 -89 -65 -189 -168 -263 -60 -42 -74 -39 -79 18 -3 25 -11 60 -20 78
-14 30 -14 37 2 80 54 144 80 208 90 214 17 13 58 8 101 -11z m-206 -360 c0
-78 0 -79 -30 -91 -17 -7 -32 -11 -35 -9 -4 5 55 179 61 179 2 0 4 -35 4 -79z"/>
<path d="M655 381 c19 -33 281 -33 300 0 4 5 -57 9 -150 9 -93 0 -154 -4 -150
-9z"/>
</g>
</svg>
